<svg width="98" height="18" viewBox="0 0 98 18" fill="none" xmlns="http://www.w3.org/2000/svg">
<path d="M0.411 2.1H5.817C7.109 2.1 8.248 2.34933 9.234 2.848C10.2313 3.33533 11.002 4.02667 11.546 4.922C12.1013 5.81733 12.379 6.86 12.379 8.05C12.379 9.24 12.1013 10.2827 11.546 11.178C11.002 12.0733 10.2313 12.7703 9.234 13.269C8.248 13.7563 7.109 14 5.817 14H0.411V2.1ZM5.681 11.739C6.871 11.739 7.81733 11.4103 8.52 10.753C9.234 10.0843 9.591 9.18333 9.591 8.05C9.591 6.91667 9.234 6.02133 8.52 5.364C7.81733 4.69533 6.871 4.361 5.681 4.361H3.165V11.739H5.681ZM14.4559 2.1H17.2099V14H14.4559V2.1ZM27.871 11.45H22.346L21.292 14H18.47L23.774 2.1H26.494L31.815 14H28.925L27.871 11.45ZM27.004 9.359L25.117 4.803L23.23 9.359H27.004Z" fill="#D7A100"/>
<path d="M37.8641 2.1H43.2701C44.5621 2.1 45.7011 2.34933 46.6871 2.848C47.6845 3.33533 48.4551 4.02667 48.9991 4.922C49.5545 5.81733 49.8321 6.86 49.8321 8.05C49.8321 9.24 49.5545 10.2827 48.9991 11.178C48.4551 12.0733 47.6845 12.7703 46.6871 13.269C45.7011 13.7563 44.5621 14 43.2701 14H37.8641V2.1ZM43.1341 11.739C44.3241 11.739 45.2705 11.4103 45.9731 10.753C46.6871 10.0843 47.0441 9.18333 47.0441 8.05C47.0441 6.91667 46.6871 6.02133 45.9731 5.364C45.2705 4.69533 44.3241 4.361 43.1341 4.361H40.6181V11.739H43.1341ZM60.681 9.461C60.681 9.495 60.664 9.733 60.63 10.175H53.711C53.8357 10.7417 54.1304 11.1893 54.595 11.518C55.0597 11.8467 55.6377 12.011 56.329 12.011C56.805 12.011 57.2244 11.943 57.587 11.807C57.961 11.6597 58.3067 11.433 58.624 11.127L60.035 12.657C59.1737 13.643 57.9157 14.136 56.261 14.136C55.2297 14.136 54.3174 13.9377 53.524 13.541C52.7307 13.133 52.1187 12.572 51.688 11.858C51.2574 11.144 51.042 10.3337 51.042 9.427C51.042 8.53167 51.2517 7.727 51.671 7.013C52.1017 6.28767 52.6854 5.72667 53.422 5.33C54.17 4.922 55.003 4.718 55.921 4.718C56.8164 4.718 57.6267 4.91067 58.352 5.296C59.0774 5.68133 59.644 6.23667 60.052 6.962C60.4714 7.676 60.681 8.509 60.681 9.461ZM55.938 6.724C55.3374 6.724 54.833 6.894 54.425 7.234C54.017 7.574 53.7677 8.03867 53.677 8.628H58.182C58.0914 8.05 57.842 7.591 57.434 7.251C57.026 6.89967 56.5274 6.724 55.938 6.724ZM65.5237 14.136C64.7643 14.136 64.022 14.0453 63.2967 13.864C62.5713 13.6713 61.9933 13.4333 61.5627 13.15L62.4467 11.246C62.8547 11.5067 63.3477 11.722 63.9257 11.892C64.5037 12.0507 65.0703 12.13 65.6257 12.13C66.7477 12.13 67.3087 11.8523 67.3087 11.297C67.3087 11.0363 67.1557 10.8493 66.8497 10.736C66.5437 10.6227 66.0733 10.5263 65.4387 10.447C64.6907 10.3337 64.073 10.2033 63.5857 10.056C63.0983 9.90867 62.6733 9.648 62.3107 9.274C61.9593 8.9 61.7837 8.36733 61.7837 7.676C61.7837 7.098 61.948 6.588 62.2767 6.146C62.6167 5.69267 63.104 5.34133 63.7387 5.092C64.3847 4.84267 65.144 4.718 66.0167 4.718C66.6627 4.718 67.303 4.79167 67.9377 4.939C68.5837 5.075 69.1163 5.26767 69.5357 5.517L68.6517 7.404C67.847 6.95067 66.9687 6.724 66.0167 6.724C65.45 6.724 65.025 6.80333 64.7417 6.962C64.4583 7.12067 64.3167 7.32467 64.3167 7.574C64.3167 7.85733 64.4697 8.05567 64.7757 8.169C65.0817 8.28233 65.569 8.39 66.2377 8.492C66.9857 8.61667 67.5977 8.75267 68.0737 8.9C68.5497 9.036 68.9633 9.291 69.3147 9.665C69.666 10.039 69.8417 10.5603 69.8417 11.229C69.8417 11.7957 69.6717 12.3 69.3317 12.742C68.9917 13.184 68.493 13.5297 67.8357 13.779C67.1897 14.017 66.419 14.136 65.5237 14.136ZM71.4779 4.854H74.1299V14H71.4779V4.854ZM72.8039 3.579C72.3166 3.579 71.9199 3.43733 71.6139 3.154C71.3079 2.87067 71.1549 2.51933 71.1549 2.1C71.1549 1.68067 71.3079 1.32933 71.6139 1.046C71.9199 0.762666 72.3166 0.620999 72.8039 0.620999C73.2912 0.620999 73.6879 0.756999 73.9939 1.029C74.2999 1.301 74.4529 1.641 74.4529 2.049C74.4529 2.491 74.2999 2.85933 73.9939 3.154C73.6879 3.43733 73.2912 3.579 72.8039 3.579ZM86.0262 4.854V12.47C86.0262 14.1473 85.5899 15.394 84.7172 16.21C83.8445 17.026 82.5695 17.434 80.8922 17.434C80.0082 17.434 79.1695 17.3263 78.3762 17.111C77.5829 16.8957 76.9255 16.584 76.4042 16.176L77.4582 14.272C77.8435 14.5893 78.3309 14.8387 78.9202 15.02C79.5095 15.2127 80.0989 15.309 80.6882 15.309C81.6062 15.309 82.2805 15.0993 82.7112 14.68C83.1532 14.272 83.3742 13.6487 83.3742 12.81V12.419C82.6829 13.1783 81.7195 13.558 80.4842 13.558C79.6455 13.558 78.8749 13.3767 78.1722 13.014C77.4809 12.64 76.9312 12.1187 76.5232 11.45C76.1152 10.7813 75.9112 10.0107 75.9112 9.138C75.9112 8.26533 76.1152 7.49467 76.5232 6.826C76.9312 6.15733 77.4809 5.64167 78.1722 5.279C78.8749 4.905 79.6455 4.718 80.4842 4.718C81.8102 4.718 82.8189 5.15433 83.5102 6.027V4.854H86.0262ZM81.0112 11.382C81.7139 11.382 82.2862 11.178 82.7282 10.77C83.1815 10.3507 83.4082 9.80667 83.4082 9.138C83.4082 8.46933 83.1815 7.931 82.7282 7.523C82.2862 7.10367 81.7139 6.894 81.0112 6.894C80.3085 6.894 79.7305 7.10367 79.2772 7.523C78.8239 7.931 78.5972 8.46933 78.5972 9.138C78.5972 9.80667 78.8239 10.3507 79.2772 10.77C79.7305 11.178 80.3085 11.382 81.0112 11.382ZM94.0535 4.718C95.1868 4.718 96.0992 5.058 96.7905 5.738C97.4932 6.418 97.8445 7.42667 97.8445 8.764V14H95.1925V9.172C95.1925 8.44667 95.0338 7.90833 94.7165 7.557C94.3992 7.19433 93.9402 7.013 93.3395 7.013C92.6708 7.013 92.1382 7.22267 91.7415 7.642C91.3448 8.05 91.1465 8.662 91.1465 9.478V14H88.4945V4.854H91.0275V5.925C91.3788 5.53967 91.8152 5.245 92.3365 5.041C92.8578 4.82567 93.4302 4.718 94.0535 4.718Z" fill="#242424"/>
</svg>
