<svg width="24" height="25" viewBox="0 0 24 25" fill="none" xmlns="http://www.w3.org/2000/svg">
<path d="M12.2812 0C5.79688 0 0.5625 5.23438 0.5625 11.7188C0.5625 14.375 1.42187 16.875 3.0625 18.9062L1.42187 23.9062C1.34375 24.2188 1.42188 24.5312 1.65625 24.7656C1.73438 24.9219 1.96875 25 2.125 25C2.20312 25 2.35938 25 2.4375 24.9219L7.82812 22.5C9.23438 23.125 10.7188 23.4375 12.2812 23.4375C18.7656 23.4375 24 18.2031 24 11.7188C24 5.23438 18.7656 0 12.2812 0ZM19.0781 16.0156C18.7656 16.9531 17.5938 17.7344 16.5781 17.8906C16.3438 17.9688 16.1094 17.9688 15.7969 17.9688C15.1719 17.9688 14.2344 17.8125 12.5938 17.1094C10.7188 16.3281 8.84375 14.6875 7.35938 12.5781V12.5C6.89062 11.7969 6.03125 10.4688 6.03125 9.0625C6.03125 7.34375 6.89062 6.48438 7.20312 6.09375C7.59375 5.70312 8.14062 5.46875 8.76562 5.46875C8.92188 5.46875 9 5.46875 9.15625 5.46875C9.70312 5.46875 10.0938 5.625 10.4844 6.40625L10.7969 7.03125C11.0312 7.65625 11.3438 8.35938 11.4219 8.4375C11.6562 8.90625 11.6562 9.29688 11.4219 9.6875C11.3438 9.92188 11.1875 10.0781 11.0312 10.2344C10.9531 10.3906 10.875 10.4688 10.7969 10.4688C10.7188 10.5469 10.7188 10.5469 10.6406 10.625C10.875 11.0156 11.3438 11.7188 11.9688 12.2656C12.9062 13.125 13.6094 13.3594 14 13.5156C14.1563 13.3594 14.3125 13.0469 14.5469 12.8125L14.625 12.6563C15.0156 12.1094 15.6406 11.9531 16.2656 12.1875C16.5781 12.3438 18.2969 13.125 18.2969 13.125L18.4531 13.2031C18.6875 13.3594 19 13.4375 19.1562 13.75C19.4688 14.4531 19.2344 15.4688 19.0781 16.0156Z" fill="#242424"/>
</svg>
