<svg width="60" height="61" viewBox="0 0 60 61" fill="none" xmlns="http://www.w3.org/2000/svg">
<rect x="1.50098" y="2.33447" width="57" height="57" rx="8.5" stroke="#FA002C" stroke-opacity="0.15" stroke-width="3"/>
<path d="M40.0557 44.4751H20.0869C18.987 44.474 17.9325 44.0366 17.1548 43.2588C16.377 42.4811 15.9396 41.4266 15.9385 40.3267V30.1313C15.9396 29.0315 16.377 27.9769 17.1548 27.1992C17.9325 26.4215 18.987 25.984 20.0869 25.9829H27.1083C27.6491 25.9829 28.1678 25.7681 28.5502 25.3857C28.9326 25.0033 29.1474 24.4846 29.1474 23.9438C29.1485 22.844 29.5859 21.7894 30.3637 21.0117C31.1414 20.234 32.1959 19.7965 33.2958 19.7954H40.0557C41.1556 19.7965 42.2101 20.234 42.9878 21.0117C43.7656 21.7894 44.203 22.844 44.2041 23.9438V40.3267C44.2028 41.4265 43.7653 42.4809 42.9876 43.2586C42.2099 44.0363 41.1555 44.4738 40.0557 44.4751ZM20.0869 28.0923C19.5461 28.0923 19.0275 28.3071 18.6451 28.6895C18.2627 29.0719 18.0479 29.5906 18.0479 30.1313V40.3267C18.0479 40.8675 18.2627 41.3861 18.6451 41.7685C19.0275 42.1509 19.5461 42.3657 20.0869 42.3657H40.0557C40.5965 42.3657 41.1151 42.1509 41.4975 41.7685C41.8799 41.3861 42.0947 40.8675 42.0947 40.3267V23.9438C42.0947 23.4031 41.8799 22.8844 41.4975 22.502C41.1151 22.1196 40.5965 21.9048 40.0557 21.9048H33.2958C32.755 21.9048 32.2364 22.1196 31.854 22.502C31.4716 22.8844 31.2568 23.4031 31.2568 23.9438C31.2555 25.0437 30.818 26.0981 30.0403 26.8758C29.2626 27.6535 28.2082 28.091 27.1083 28.0923H20.0869Z" fill="#FA002C"/>
<path d="M20.5088 27.4255C20.2291 27.4255 19.9608 27.3144 19.763 27.1166C19.5652 26.9188 19.4541 26.6506 19.4541 26.3708V16.5974C19.4541 16.3177 19.5652 16.0494 19.763 15.8516C19.9608 15.6538 20.2291 15.5427 20.5088 15.5427H39.6338C39.9135 15.5427 40.1818 15.6538 40.3796 15.8516C40.5774 16.0494 40.6885 16.3177 40.6885 16.5974V20.1833C40.6885 20.4631 40.5774 20.7313 40.3796 20.9291C40.1818 21.1269 39.9135 21.238 39.6338 21.238C39.3541 21.238 39.0858 21.1269 38.888 20.9291C38.6902 20.7313 38.5791 20.4631 38.5791 20.1833V17.6521H21.5635V26.3708C21.5635 26.6506 21.4524 26.9188 21.2546 27.1166C21.0568 27.3144 20.7885 27.4255 20.5088 27.4255Z" fill="#FA002C"/>
</svg>
