<svg width="60" height="60" viewBox="0 0 60 60" fill="none" xmlns="http://www.w3.org/2000/svg">
<rect x="1.50098" y="1.5" width="57" height="57" rx="8.5" stroke="#FA002C" stroke-opacity="0.15" stroke-width="3"/>
<path d="M43.001 43H17.001C15.8964 43 15.001 42.1046 15.001 41V23.625C15.001 22.5204 15.8964 21.625 17.001 21.625H21.8899C22.9944 21.625 23.8899 20.7296 23.8899 19.625V18C23.8899 16.8954 24.7853 16 25.8899 16H34.1121C35.2167 16 36.1121 16.8954 36.1121 18V19.625C36.1121 20.7296 37.0075 21.625 38.1121 21.625H43.001C44.1055 21.625 45.001 22.5204 45.001 23.625V41C45.001 42.1046 44.1055 43 43.001 43Z" stroke="#FA002C" stroke-width="2.5"/>
<circle cx="30.001" cy="32" r="6" stroke="#FA002C" stroke-width="2.5"/>
</svg>
