<svg width="61" height="61" viewBox="0 0 61 61" fill="none" xmlns="http://www.w3.org/2000/svg">
<path d="M29.9673 15.8118L18.4673 21.7748C17.8042 22.1186 17.3879 22.8033 17.3879 23.5503V34.57C17.3879 34.7455 17.4086 34.918 17.4614 35.0855C18.8335 39.4386 25.9833 46.3345 30.8879 46.3345C35.7363 46.3345 42.7785 38.6557 44.265 35.1508C44.3528 34.9436 44.3879 34.7196 44.3879 34.4946V23.5503C44.3879 22.8033 43.9717 22.1186 43.3086 21.7748L31.8086 15.8118C31.2313 15.5125 30.5446 15.5125 29.9673 15.8118Z" stroke="#FA002C" stroke-width="2.5"/>
<path d="M26.2209 31.1676L29.3244 34.1676L36.2209 27.501" stroke="#FA002C" stroke-width="2.5"/>
<rect x="2.38794" y="2.33447" width="57" height="57" rx="8.5" stroke="#FA002C" stroke-opacity="0.15" stroke-width="3"/>
</svg>
