<svg width="60" height="61" viewBox="0 0 60 61" fill="none" xmlns="http://www.w3.org/2000/svg">
<rect x="1.50098" y="2.33447" width="57" height="57" rx="8.5" stroke="#FA002C" stroke-opacity="0.15" stroke-width="3"/>
<path fill-rule="evenodd" clip-rule="evenodd" d="M15.8522 27.3608H21.5864V44.0855H15.8522C15.3244 44.0855 14.8965 43.5095 14.8965 42.799V28.6474C14.8965 27.9368 15.3244 27.3608 15.8522 27.3608Z" stroke="#FA002C" stroke-width="2.5" stroke-linecap="round" stroke-linejoin="round"/>
<path d="M21.5861 28.6152L27.1047 17.9229C27.92 16.3432 29.8616 15.7235 31.4413 16.5389C31.7364 16.6912 32.0062 16.8883 32.2411 17.1231C33.182 18.0641 33.7106 19.3403 33.7106 20.671V25.6884H42.4925C43.212 25.6884 43.897 25.9974 44.3732 26.5368C44.8494 27.0763 45.071 27.7942 44.9818 28.5082L43.1003 41.888C42.9433 43.1434 41.8761 44.0855 40.6109 44.0855H21.5861" stroke="#FA002C" stroke-width="2.5" stroke-linecap="round" stroke-linejoin="round"/>
</svg>
