<svg width="60" height="61" viewBox="0 0 60 61" fill="none" xmlns="http://www.w3.org/2000/svg">
<rect x="1.5" y="2.33447" width="57" height="57" rx="8.5" stroke="#FA002C" stroke-opacity="0.15" stroke-width="3"/>
<path d="M16.5 43.4345V18.2345C16.5 17.7374 16.9029 17.3345 17.4 17.3345H42.6C43.0971 17.3345 43.5 17.7374 43.5 18.2345V43.4345C43.5 43.9316 43.0971 44.3345 42.6 44.3345H17.4C16.9029 44.3345 16.5 43.9316 16.5 43.4345Z" stroke="#FA002C" stroke-width="2.5" stroke-linecap="round" stroke-linejoin="round"/>
<path d="M34.5 25.5845C33.4725 24.557 31.6631 23.8423 30 23.7976M25.5 35.3345C26.4667 36.6234 28.2642 37.3586 30 37.421M30 23.7976C28.0213 23.7443 26.25 24.6394 26.25 27.0845C26.25 31.5845 34.5 29.3345 34.5 33.8345C34.5 36.401 32.3043 37.5038 30 37.421M30 23.7976V21.0845M30 37.421V40.5845" stroke="#FA002C" stroke-width="2.5" stroke-linecap="round" stroke-linejoin="round"/>
</svg>
