<svg width="16" height="17" viewBox="0 0 16 17" fill="none" xmlns="http://www.w3.org/2000/svg">
<path d="M15.8569 12.8394C15.8569 13.0403 15.8197 13.3026 15.7453 13.6263C15.6709 13.9499 15.5927 14.2048 15.5109 14.3908C15.3546 14.7628 14.9008 15.1571 14.1493 15.5738C13.4499 15.9533 12.7579 16.143 12.0734 16.143C11.8725 16.143 11.6772 16.13 11.4874 16.1039C11.2977 16.0779 11.0838 16.0314 10.8457 15.9644C10.6076 15.8975 10.4309 15.8435 10.3156 15.8026C10.2002 15.7617 9.99377 15.6854 9.69615 15.5738C9.39853 15.4622 9.21624 15.3952 9.14927 15.3729C8.42011 15.1125 7.76907 14.8037 7.19615 14.4466C6.24377 13.8588 5.25977 13.0571 4.24414 12.0414C3.22852 11.0258 2.4268 10.0418 1.83901 9.08943C1.48186 8.51651 1.17308 7.86547 0.912667 7.1363C0.890346 7.06934 0.823382 6.88704 0.711775 6.58943C0.600167 6.29181 0.523903 6.08533 0.48298 5.97001C0.442057 5.85468 0.388114 5.67797 0.32115 5.43987C0.254185 5.20178 0.207682 4.98786 0.181641 4.79813C0.155599 4.6084 0.142578 4.41309 0.142578 4.21219C0.142578 3.52767 0.33231 2.83571 0.711775 2.1363C1.12844 1.38481 1.52279 0.930943 1.89481 0.774693C2.08082 0.692848 2.33566 0.614723 2.65932 0.540318C2.98298 0.465913 3.24526 0.428711 3.44615 0.428711C3.55032 0.428711 3.62844 0.439872 3.68052 0.462193C3.81445 0.506836 4.01163 0.789574 4.27204 1.31041C4.35389 1.45178 4.4655 1.65267 4.60686 1.91309C4.74823 2.1735 4.87844 2.40974 4.99749 2.62179C5.11654 2.83384 5.23186 3.03288 5.34347 3.21889C5.36579 3.24865 5.4309 3.34166 5.53878 3.49791C5.64667 3.65416 5.72666 3.78623 5.77874 3.89411C5.83082 4.002 5.85686 4.10803 5.85686 4.21219C5.85686 4.361 5.75084 4.54701 5.53878 4.77023C5.32673 4.99344 5.09608 5.19806 4.84682 5.38407C4.59756 5.57008 4.36691 5.76725 4.15485 5.97559C3.9428 6.18392 3.83677 6.35505 3.83677 6.48898C3.83677 6.55594 3.85538 6.63965 3.89258 6.7401C3.92978 6.84054 3.9614 6.91681 3.98744 6.96889C4.01349 7.02097 4.06557 7.11026 4.14369 7.23675C4.22182 7.36323 4.2646 7.43392 4.27204 7.4488C4.83752 8.46815 5.48484 9.3424 6.21401 10.0716C6.94317 10.8007 7.81743 11.4481 8.83677 12.0135C8.85166 12.021 8.92234 12.0638 9.04883 12.1419C9.17532 12.22 9.2646 12.2721 9.31669 12.2981C9.36877 12.3242 9.44503 12.3558 9.54548 12.393C9.64593 12.4302 9.72963 12.4488 9.7966 12.4488C9.93052 12.4488 10.1017 12.3428 10.31 12.1307C10.5183 11.9187 10.7155 11.688 10.9015 11.4388C11.0875 11.1895 11.2921 10.9588 11.5153 10.7468C11.7386 10.5347 11.9246 10.4287 12.0734 10.4287C12.1775 10.4287 12.2836 10.4548 12.3915 10.5068C12.4993 10.5589 12.6314 10.6389 12.7877 10.7468C12.9439 10.8547 13.0369 10.9198 13.0667 10.9421C13.2527 11.0537 13.4517 11.169 13.6638 11.2881C13.8758 11.4071 14.1121 11.5373 14.3725 11.6787C14.6329 11.8201 14.8338 11.9317 14.9752 12.0135C15.496 12.2739 15.7787 12.4711 15.8234 12.6051C15.8457 12.6571 15.8569 12.7353 15.8569 12.8394Z" fill="white"/>
</svg>
