<svg width="61" height="61" viewBox="0 0 61 61" fill="none" xmlns="http://www.w3.org/2000/svg">
<rect x="2.38794" y="2.33447" width="57" height="57" rx="8.5" stroke="#FA002C" stroke-opacity="0.15" stroke-width="3"/>
<path d="M26.2209 34.168L35.5543 24.168" stroke="#FA002C" stroke-width="2.5" stroke-linecap="round" stroke-linejoin="round"/>
<path d="M26.3879 26.8345C27.2164 26.8345 27.8879 26.1629 27.8879 25.3345C27.8879 24.506 27.2164 23.8345 26.3879 23.8345C25.5595 23.8345 24.8879 24.506 24.8879 25.3345C24.8879 26.1629 25.5595 26.8345 26.3879 26.8345Z" stroke="#FA002C" stroke-width="2.5" stroke-linecap="round" stroke-linejoin="round"/>
<path d="M35.3879 34.8345C36.2164 34.8345 36.8879 34.1629 36.8879 33.3345C36.8879 32.506 36.2164 31.8345 35.3879 31.8345C34.5595 31.8345 33.8879 32.506 33.8879 33.3345C33.8879 34.1629 34.5595 34.8345 35.3879 34.8345Z" stroke="#FA002C" stroke-width="2.5" stroke-linecap="round" stroke-linejoin="round"/>
<path d="M18.8879 46.1676V18.9084C18.8879 18.0047 19.2492 17.138 19.8921 16.499C20.5351 15.86 21.4072 15.501 22.3165 15.501H39.4594C40.3687 15.501 41.2408 15.86 41.8837 16.499C42.5267 17.138 42.8879 18.0047 42.8879 18.9084V46.1676L37.7451 42.7602L34.3165 46.1676L30.8879 42.7602L27.4594 46.1676L24.0308 42.7602L18.8879 46.1676Z" stroke="#FA002C" stroke-width="2.5" stroke-linecap="round" stroke-linejoin="round"/>
</svg>
