<svg width="127" height="49" viewBox="0 0 127 49" fill="none" xmlns="http://www.w3.org/2000/svg">
<rect width="127" height="49" rx="4" fill="#F53B49"/>
<g clip-path="url(#clip0_785_2171)">
<path d="M27.3333 16H24.6667C24.2987 16 24 16.2987 24 16.6667V19.3333C24 19.7013 24.2987 20 24.6667 20H27.3333C27.7013 20 28 19.7013 28 19.3333V16.6667C28 16.2987 27.7013 16 27.3333 16Z" fill="white"/>
<path d="M27.3333 22H24.6667C24.2987 22 24 22.2987 24 22.6667V25.3333C24 25.7013 24.2987 26 24.6667 26H27.3333C27.7013 26 28 25.7013 28 25.3333V22.6667C28 22.2987 27.7013 22 27.3333 22Z" fill="white"/>
<path d="M27.3333 28H24.6667C24.2987 28 24 28.2987 24 28.6667V31.3333C24 31.7013 24.2987 32 24.6667 32H27.3333C27.7013 32 28 31.7013 28 31.3333V28.6667C28 28.2987 27.7013 28 27.3333 28Z" fill="white"/>
<path d="M33.3333 16H30.6667C30.2987 16 30 16.2987 30 16.6667V19.3333C30 19.7013 30.2987 20 30.6667 20H33.3333C33.7013 20 34 19.7013 34 19.3333V16.6667C34 16.2987 33.7013 16 33.3333 16Z" fill="white"/>
<path d="M33.3333 22H30.6667C30.2987 22 30 22.2987 30 22.6667V25.3333C30 25.7013 30.2987 26 30.6667 26H33.3333C33.7013 26 34 25.7013 34 25.3333V22.6667C34 22.2987 33.7013 22 33.3333 22Z" fill="white"/>
<path d="M33.3333 28H30.6667C30.2987 28 30 28.2987 30 28.6667V31.3333C30 31.7013 30.2987 32 30.6667 32H33.3333C33.7013 32 34 31.7013 34 31.3333V28.6667C34 28.2987 33.7013 28 33.3333 28Z" fill="white"/>
<path d="M39.3333 16H36.6667C36.2987 16 36 16.2987 36 16.6667V19.3333C36 19.7013 36.2987 20 36.6667 20H39.3333C39.7013 20 40 19.7013 40 19.3333V16.6667C40 16.2987 39.7013 16 39.3333 16Z" fill="white"/>
<path d="M39.3333 22H36.6667C36.2987 22 36 22.2987 36 22.6667V25.3333C36 25.7013 36.2987 26 36.6667 26H39.3333C39.7013 26 40 25.7013 40 25.3333V22.6667C40 22.2987 39.7013 22 39.3333 22Z" fill="white"/>
<path d="M39.3333 28H36.6667C36.2987 28 36 28.2987 36 28.6667V31.3333C36 31.7013 36.2987 32 36.6667 32H39.3333C39.7013 32 40 31.7013 40 31.3333V28.6667C40 28.2987 39.7013 28 39.3333 28Z" fill="white"/>
</g>
<path d="M57.0447 29.5H59.7145L55.5582 24.0412L59.5305 19.3182H56.8509L53.4702 23.3849H53.0376V19.3182H50.8849V29.5H53.0376V25.1598H53.7734L57.0447 29.5ZM62.9348 29.6442C64.0634 29.6442 64.7942 29.152 65.1671 28.4411H65.2267V29.5H67.2353V24.3494C67.2353 22.5298 65.6941 21.7642 63.9938 21.7642C62.1642 21.7642 60.9611 22.6392 60.6678 24.0312L62.6266 24.1903C62.7708 23.6832 63.2232 23.3104 63.9838 23.3104C64.7047 23.3104 65.1174 23.6733 65.1174 24.2997V24.3295C65.1174 24.8217 64.5953 24.8864 63.2679 25.0156C61.7566 25.1548 60.3993 25.6619 60.3993 27.3672C60.3993 28.8786 61.4782 29.6442 62.9348 29.6442ZM63.5414 28.1825C62.8901 28.1825 62.4228 27.8793 62.4228 27.2976C62.4228 26.701 62.915 26.4077 63.6607 26.3033C64.123 26.2386 64.8787 26.1293 65.1323 25.9602V26.7706C65.1323 27.571 64.4711 28.1825 63.5414 28.1825ZM68.1252 23.5291H70.5662V29.5H72.5847V23.5291H75.0456V21.8636H68.1252V23.5291ZM78.2337 29.6442C79.3622 29.6442 80.093 29.152 80.4659 28.4411H80.5256V29.5H82.5341V24.3494C82.5341 22.5298 80.9929 21.7642 79.2926 21.7642C77.4631 21.7642 76.2599 22.6392 75.9666 24.0312L77.9254 24.1903C78.0696 23.6832 78.522 23.3104 79.2827 23.3104C80.0036 23.3104 80.4162 23.6733 80.4162 24.2997V24.3295C80.4162 24.8217 79.8942 24.8864 78.5668 25.0156C77.0554 25.1548 75.6982 25.6619 75.6982 27.3672C75.6982 28.8786 76.777 29.6442 78.2337 29.6442ZM78.8402 28.1825C78.1889 28.1825 77.7216 27.8793 77.7216 27.2976C77.7216 26.701 78.2138 26.4077 78.9595 26.3033C79.4219 26.2386 80.1776 26.1293 80.4311 25.9602V26.7706C80.4311 27.571 79.7699 28.1825 78.8402 28.1825ZM83.7298 29.5H84.3661C85.9869 29.5 86.8469 28.4261 86.9762 25.8608L87.0955 23.5291H88.9798V29.5H90.9982V21.8636H85.1914L85.0671 25.2443C84.9925 27.1783 84.6942 27.8196 83.9734 27.8196H83.7198L83.7298 29.5ZM96.0904 29.6491C98.4071 29.6491 99.8489 28.0632 99.8489 25.7116C99.8489 23.3452 98.4071 21.7642 96.0904 21.7642C93.7736 21.7642 92.3319 23.3452 92.3319 25.7116C92.3319 28.0632 93.7736 29.6491 96.0904 29.6491ZM96.1003 28.0085C95.0314 28.0085 94.4846 27.0291 94.4846 25.6967C94.4846 24.3643 95.0314 23.38 96.1003 23.38C97.1493 23.38 97.6962 24.3643 97.6962 25.6967C97.6962 27.0291 97.1493 28.0085 96.1003 28.0085ZM106.456 21.8636H101.226V29.5H103.284V23.5291H106.456V21.8636Z" fill="white"/>
<defs>
<clipPath id="clip0_785_2171">
<rect width="16" height="16" fill="white" transform="translate(24 16)"/>
</clipPath>
</defs>
</svg>
