<svg width="40" height="29" viewBox="0 0 40 29" fill="none" xmlns="http://www.w3.org/2000/svg">
<g clip-path="url(#clip0_790_1165)">
<g opacity="0.7">
<path d="M23.0718 8.96031C20.4616 6.35082 16.2154 6.35082 13.6059 8.96031L12.9998 9.56606L12.394 8.96031C9.78455 6.35047 5.53796 6.35047 2.92847 8.96031C0.371968 11.5168 0.355367 15.5691 2.88997 18.3867C5.2017 20.9555 12.0196 26.5054 12.3089 26.7403C12.5053 26.9 12.7416 26.9777 12.9765 26.9777C12.9842 26.9777 12.992 26.9777 12.9994 26.9773C13.2424 26.9886 13.4872 26.9053 13.6899 26.7403C13.9792 26.5054 20.7979 20.9555 23.1103 18.3863C25.6445 15.5691 25.6279 11.5168 23.0718 8.96031ZM21.535 16.9689C19.7326 18.9712 14.7782 23.1009 12.9994 24.5663C11.2207 23.1013 6.26732 18.9719 4.46527 16.9692C2.69712 15.004 2.68052 12.2052 4.42677 10.459C5.31861 9.56747 6.48984 9.12137 7.66107 9.12137C8.8323 9.12137 10.0035 9.56711 10.8954 10.459L12.2277 11.7913C12.3863 11.9498 12.5862 12.0445 12.796 12.0777C13.1365 12.1508 13.5059 12.0558 13.7708 11.7916L15.1038 10.459C16.8879 8.67562 19.7898 8.67598 21.5728 10.459C23.319 12.2052 23.3024 15.004 21.535 16.9689Z" fill="white"/>
</g>
<circle cx="25" cy="10.5" r="9" fill="#F53B49" stroke="#1A1A25" stroke-width="2"/>
<path d="M22.9434 7.22727H22.0628L20.2446 8.43466V9.32955L22.0202 8.15057H22.0628V14.5H22.9434V7.22727ZM27.3078 14.5994C28.6927 14.5994 29.7084 13.5767 29.7084 12.1847C29.7084 10.7749 28.7282 9.74148 27.393 9.74148C26.903 9.74148 26.4271 9.91548 26.1288 10.1534H26.0862L26.3419 8.00852H29.3817V7.22727H25.6032L25.1629 10.8068L25.9868 10.9062C26.2886 10.6896 26.8035 10.5334 27.251 10.5369C28.1778 10.544 28.8561 11.2472 28.8561 12.1989C28.8561 13.1328 28.2027 13.8182 27.3078 13.8182C26.5621 13.8182 25.969 13.3388 25.9015 12.6818H25.0493C25.1025 13.7898 26.0578 14.5994 27.3078 14.5994Z" fill="white"/>
</g>
<defs>
<clipPath id="clip0_790_1165">
<rect width="40" height="28" fill="white" transform="translate(0 0.5)"/>
</clipPath>
</defs>
</svg>
